<svg width="39" height="36" viewBox="0 0 39 36" fill="none" xmlns="http://www.w3.org/2000/svg">
<g clip-path="url(#clip0_1_30)">
<path d="M37.2639 15.0773C37.0792 13.3355 36.6936 12.8278 36.4205 12.5915C35.9867 12.2239 35.1995 12.0926 34.1472 12.0138C32.4603 11.8913 29.5926 11.8125 26.5 11.8125C23.3994 11.8125 20.5397 11.8825 18.8528 12.0138C17.8005 12.0926 17.0133 12.2239 16.5795 12.5915C16.3064 12.8278 15.9289 13.3355 15.7361 15.0773C15.463 17.5893 15.463 23.3137 15.7361 25.8257C15.9289 27.5675 16.3064 28.0752 16.5795 28.3115C17.0133 28.6791 17.8005 28.8104 18.8528 28.8892C20.5397 29.0117 23.3994 29.0905 26.5 29.0905C29.6006 29.0905 32.4603 29.0117 34.1472 28.8892C35.1995 28.8104 35.9867 28.6791 36.4205 28.3115C36.6936 28.0839 37.0711 27.5675 37.2639 25.8257C37.537 23.3137 37.537 17.5893 37.2639 15.0773ZM23.8492 24.2064V16.6878L30.4682 20.4427L23.8492 24.2064Z" fill="white"/>
</g>
<defs>
<clipPath id="clip0_1_30">
<rect width="39" height="36" fill="white"/>
</clipPath>
</defs>
</svg>
